<svg width="24" height="24" viewBox="0 0 24 24" fill="none" xmlns="http://www.w3.org/2000/svg">
<path d="M12 3L12 15M6 3L6 15M18 3L18 15M12 19C12.5523 19 13 19.4477 13 20C13 20.5523 12.5523 21 12 21C11.4477 21 11 20.5523 11 20C11 19.4477 11.4477 19 12 19ZM6 19C6.55228 19 7 19.4477 7 20C7 20.5523 6.55228 21 6 21C5.44772 21 5 20.5523 5 20C5 19.4477 5.44772 19 6 19ZM18 19C18.5523 19 19 19.4477 19 20C19 20.5523 18.5523 21 18 21C17.4477 21 17 20.5523 17 20C17 19.4477 17.4477 19 18 19Z" stroke="white" stroke-width="2" stroke-linecap="round" stroke-linejoin="round"/>
</svg>
