<svg width="48" height="48" viewBox="0 0 48 48" fill="none" xmlns="http://www.w3.org/2000/svg">
<path d="M10 9.97927C10 8.03694 10 7.06578 10.405 6.53043C10.7578 6.06406 11.297 5.77546 11.8808 5.7406C12.5509 5.70059 13.3589 6.2393 14.975 7.31671L36.0062 21.3375C37.3415 22.2277 38.0092 22.6728 38.2419 23.2339C38.4453 23.7244 38.4453 24.2756 38.2419 24.7662C38.0092 25.3272 37.3415 25.7723 36.0062 26.6626L14.975 40.6833C13.3589 41.7607 12.5509 42.2994 11.8808 42.2594C11.297 42.2246 10.7578 41.936 10.405 41.4696C10 40.9342 10 39.9631 10 38.0208V9.97927Z" stroke="#F6F6F6" stroke-width="2" stroke-linecap="round" stroke-linejoin="round"/>
</svg>
