<svg width="30" height="30" viewBox="0 0 30 30" fill="none" xmlns="http://www.w3.org/2000/svg">
<path d="M23.75 23.75L6.25 23.75M7.59951 9.49939L13.4383 16.7978C13.9721 17.4651 14.239 17.7988 14.5615 17.9196C14.8442 18.0255 15.1558 18.0255 15.4385 17.9196C15.761 17.7988 16.0279 17.4651 16.5617 16.7978L22.4005 9.49939C23.2327 8.45918 23.6487 7.93907 23.6492 7.50135C23.6496 7.12067 23.4765 6.76056 23.179 6.52307C22.8369 6.25 22.1709 6.25 20.8388 6.25L9.16125 6.25C7.82912 6.25 7.16306 6.25 6.82097 6.52307C6.52345 6.76056 6.35037 7.12067 6.35078 7.50135C6.35125 7.93907 6.76734 8.45918 7.59951 9.49939Z" stroke="#1C1B1F" stroke-width="2" stroke-linecap="round" stroke-linejoin="round"/>
</svg>
