<svg width="32" height="34" viewBox="0 0 32 34" fill="none" xmlns="http://www.w3.org/2000/svg">
<path d="M20.1026 2.96923C20.1026 2.27994 20.1026 1.93529 19.9685 1.67201C19.8505 1.44043 19.6622 1.25214 19.4306 1.13415C19.1673 1 18.8227 1 18.1334 1H14.6872C13.9979 1 13.6533 1 13.39 1.13415C13.1584 1.25214 12.9701 1.44043 12.8521 1.67201C12.718 1.93529 12.718 2.27994 12.718 2.96923V6.41538C12.718 7.10468 12.718 7.44933 12.5838 7.7126C12.4658 7.94419 12.2776 8.13247 12.046 8.25047C11.7827 8.38462 11.4381 8.38462 10.7488 8.38462H7.30261C6.61331 8.38462 6.26866 8.38461 6.00539 8.51876C5.7738 8.63676 5.58552 8.82504 5.46752 9.05663C5.33337 9.3199 5.33337 9.66455 5.33337 10.3538V13.8C5.33337 14.4893 5.33337 14.8339 5.46752 15.0972C5.58552 15.3288 5.7738 15.5171 6.00539 15.6351C6.26866 15.7692 6.61331 15.7692 7.3026 15.7692H10.7488C11.4381 15.7692 11.7827 15.7692 12.046 15.9034C12.2776 16.0214 12.4658 16.2097 12.5838 16.4412C12.718 16.7045 12.718 26.8953 12.718 27.5846V31.0308C12.718 31.7201 12.718 32.0647 12.8521 32.328C12.9701 32.5596 13.1584 32.7479 13.39 32.8659C13.6533 33 13.9979 33 14.6872 33H18.1334C18.8227 33 19.1673 33 19.4306 32.8659C19.6622 32.7479 19.8505 32.5596 19.9685 32.328C20.1026 32.0647 20.1026 31.7201 20.1026 31.0308V27.5846C20.1026 26.8953 20.1026 16.7045 20.2368 16.4412C20.3547 16.2097 20.543 16.0214 20.7746 15.9034C21.0379 15.7692 21.3825 15.7692 22.0718 15.7692H25.518C26.2073 15.7692 26.5519 15.7692 26.8152 15.6351C27.0468 15.5171 27.2351 15.3288 27.3531 15.0972C27.4872 14.8339 27.4872 14.4893 27.4872 13.8V10.3538C27.4872 9.66455 27.4872 9.3199 27.3531 9.05663C27.2351 8.82504 27.0468 8.63676 26.8152 8.51876C26.5519 8.38462 26.2073 8.38462 25.518 8.38462L22.0718 8.38462C21.3825 8.38462 21.0379 8.38462 20.7746 8.25047C20.543 8.13247 20.3547 7.94419 20.2368 7.7126C20.1026 7.44933 20.1026 7.10468 20.1026 6.41538V2.96923Z" stroke="#211C59" stroke-width="2" stroke-linecap="round" stroke-linejoin="round"/>
</svg>
