<svg width="296" height="40" viewBox="0 0 296 40" fill="none" xmlns="http://www.w3.org/2000/svg">
<mask id="mask0_0_29" style="mask-type:alpha" maskUnits="userSpaceOnUse" x="0" y="0" width="296" height="40">
<path d="M256 10C256 4.47715 260.477 0 266 0H286C291.523 0 296 4.47715 296 10V30C296 35.5228 291.523 40 286 40H266C260.477 40 256 35.5228 256 30V10Z" fill="#FFEBB3"/>
<path d="M0 16H296V24H0V16Z" fill="#FFEBB3"/>
<path d="M124 10C124 4.47715 128.477 0 134 0H154C159.523 0 164 4.47715 164 10V30C164 35.5228 159.523 40 154 40H134C128.477 40 124 35.5228 124 30V10Z" fill="#FFEBB3"/>
<path d="M0 10C0 4.47715 4.47715 0 10 0H30C35.5228 0 40 4.47715 40 10V30C40 35.5228 35.5228 40 30 40H10C4.47715 40 0 35.5228 0 30V10Z" fill="#FFEBB3"/>
</mask>
<g mask="url(#mask0_0_29)">
<rect width="296" height="40" fill="#FFEBB3"/>
<rect width="40" height="40" fill="#FFD350"/>
<path d="M140.044 26V24.29L144.148 19.916C144.7 19.316 145.096 18.788 145.336 18.332C145.576 17.864 145.696 17.39 145.696 16.91C145.696 15.686 144.958 15.074 143.482 15.074C142.33 15.074 141.268 15.506 140.296 16.37L139.522 14.642C140.026 14.186 140.656 13.82 141.412 13.544C142.168 13.268 142.954 13.13 143.77 13.13C145.126 13.13 146.164 13.436 146.884 14.048C147.616 14.66 147.982 15.536 147.982 16.676C147.982 17.444 147.796 18.182 147.424 18.89C147.064 19.598 146.494 20.36 145.714 21.176L142.924 24.092H148.468V26H140.044Z" fill="#211C59"/>
</g>
</svg>
