<svg width="30" height="30" viewBox="0 0 30 30" fill="none" xmlns="http://www.w3.org/2000/svg">
<mask id="mask0_38_9477" style="mask-type:alpha" maskUnits="userSpaceOnUse" x="0" y="0" width="30" height="30">
<rect x="30" width="30" height="30" transform="rotate(90 30 0)" fill="#D9D9D9"/>
</mask>
<g mask="url(#mask0_38_9477)">
<path d="M6.25 6.25L23.75 6.25M22.4005 20.5006L16.5617 13.2022C16.0279 12.5349 15.761 12.2012 15.4385 12.0804C15.1558 11.9745 14.8442 11.9745 14.5615 12.0804C14.239 12.2012 13.9721 12.5349 13.4383 13.2022L7.59951 20.5006C6.76734 21.5408 6.35125 22.0609 6.35078 22.4986C6.35037 22.8793 6.52345 23.2394 6.82097 23.4769C7.16306 23.75 7.82912 23.75 9.16125 23.75L20.8387 23.75C22.1709 23.75 22.8369 23.75 23.179 23.4769C23.4765 23.2394 23.6496 22.8793 23.6492 22.4987C23.6487 22.0609 23.2327 21.5408 22.4005 20.5006Z" stroke="#1C1B1F" stroke-width="2" stroke-linecap="round" stroke-linejoin="round"/>
</g>
</svg>
