<svg width="48" height="48" viewBox="0 0 48 48" fill="none" xmlns="http://www.w3.org/2000/svg">
<path d="M19 30V18M29 30V18M15.6 42H32.4C35.7603 42 37.4405 42 38.7239 41.346C39.8529 40.7708 40.7708 39.8529 41.346 38.7239C42 37.4405 42 35.7603 42 32.4V15.6C42 12.2397 42 10.5595 41.346 9.27606C40.7708 8.14708 39.8529 7.2292 38.7239 6.65396C37.4405 6 35.7603 6 32.4 6H15.6C12.2397 6 10.5595 6 9.27606 6.65396C8.14708 7.2292 7.2292 8.14708 6.65396 9.27606C6 10.5595 6 12.2397 6 15.6V32.4C6 35.7603 6 37.4405 6.65396 38.7239C7.2292 39.8529 8.14708 40.7708 9.27606 41.346C10.5595 42 12.2397 42 15.6 42Z" stroke="#F6F6F6" stroke-width="2" stroke-linecap="round" stroke-linejoin="round"/>
</svg>
