<svg width="39" height="38" viewBox="0 0 39 38" fill="none" xmlns="http://www.w3.org/2000/svg">
<path d="M11.7316 8.375C11.1921 9.61877 9.30334 11.5434 7.38867 12.0525L14.3303 18.6397L19.7951 23.8256L26.903 30.5706C27.4417 28.7462 29.4768 26.9578 30.7783 26.4493L11.7316 8.375Z" fill="#61626D"/>
<path d="M21.9732 22.0698C21.583 21.6995 10.3886 11.0765 9.9128 10.625C9.1505 11.2935 8.31824 11.8044 7.38867 12.0516L14.3303 18.6388L19.7951 23.8247L26.903 30.5697C27.1634 29.6876 27.7018 28.8979 28.4063 28.1744L21.9732 22.0698Z" fill="#3F404C"/>
<path d="M23.7462 16.5769L35.3315 5.58301L33.5527 3.89503L21.9674 14.8889L23.7462 16.5769Z" fill="#CDCECC"/>
<path d="M23.7462 16.5769L35.3315 5.58301L33.5527 3.89503L21.9674 14.8889L23.7462 16.5769Z" fill="#E5E5E5"/>
<path d="M21.9674 14.89L22.8068 15.6865L34.392 4.69277L33.5526 3.89623L21.9674 14.89Z" fill="#CDCECC"/>
<path d="M23.1711 19.0529L24.0555 18.2136C24.4631 17.8268 24.4631 17.1999 24.0555 16.8131L21.7189 14.5958C21.3113 14.209 20.6505 14.209 20.243 14.5958L19.3585 15.4351L23.1711 19.0529Z" fill="#FF8C01"/>
<path d="M21.7188 14.5956C21.7008 14.5786 21.6819 14.5633 21.663 14.5479C21.1552 15.098 20.6903 15.6847 20.2739 16.3036L23.1711 19.0528L24.0555 18.2136C24.4631 17.8267 24.4631 17.1998 24.0555 16.8131L21.7188 14.5956Z" fill="#FFA403"/>
<path d="M23.3923 19.1139L19.2937 15.2245C18.9165 14.8666 18.3048 14.8666 17.9276 15.2245L2.01701 30.3228C0.507838 31.7549 0.507838 34.0766 2.01701 35.5087C3.52604 36.9407 5.97268 36.9407 7.48178 35.5087L23.3924 20.4104C23.7696 20.0524 23.7696 19.472 23.3923 19.1139Z" fill="#FF8C01"/>
<path d="M3.47393 31.5375L19.9791 15.875L19.2936 15.2245C18.9164 14.8666 18.3047 14.8666 17.9275 15.2245L2.0171 30.3227C0.243114 32.0061 0.603715 34.8247 2.75585 36.0571C1.94531 34.6036 2.1846 32.7611 3.47393 31.5375Z" fill="#F45C0F"/>
<path d="M20.3356 16.2139C18.7867 18.4794 17.8864 21.1814 17.8864 24.0833C17.8864 24.5823 17.9131 25.0754 17.965 25.5613L23.3924 20.4111C23.7697 20.0531 23.7697 19.4726 23.3924 19.1146L20.3356 16.2139Z" fill="#FFA403"/>
<path d="M23.3923 19.1139L19.2936 15.2245C18.9164 14.8666 18.3047 14.8666 17.9275 15.2245L16.3904 16.6831L21.8554 21.869L23.3924 20.4104C23.7696 20.0524 23.7696 19.472 23.3923 19.1139Z" fill="#FFC35A"/>
<path d="M17.7591 17.9817L19.9791 15.875L19.2936 15.2245C18.9164 14.8666 18.3047 14.8666 17.9275 15.2245L16.3904 16.6831L17.7591 17.9817Z" fill="#F9A346"/>
<path d="M23.3923 19.1135L20.3355 16.2129C19.7382 17.0864 19.2379 18.0251 18.848 19.0149L21.8553 21.8686L23.3923 20.41C23.7696 20.052 23.7696 19.4717 23.3923 19.1135Z" fill="#FFD188"/>
<path d="M17.6712 20.6533C17.18 20.1872 16.3837 20.1872 15.8927 20.6533L3.9807 31.9572C3.48959 32.4232 3.48959 33.1789 3.9807 33.6449C4.47188 34.111 5.26806 34.111 5.75924 33.6449L17.6712 22.3412C18.1624 21.875 18.1624 21.1195 17.6712 20.6533Z" fill="#FFD188"/>
<path d="M4.78915 32.7733L16.701 21.4695C17.051 21.1374 17.5557 21.0433 17.9948 21.1846C17.7427 20.3 16.5745 20.0062 15.8927 20.6533L3.98074 31.957C3.32343 32.5807 3.58285 33.6457 4.46562 33.9298C4.35183 33.5306 4.45894 33.0865 4.78915 32.7733Z" fill="#FFC35A"/>
<path d="M36.7482 2.94206L36.3358 2.55071C35.9585 2.19273 35.3469 2.19273 34.9696 2.55071L33.5351 3.91205L33.4436 3.99884L35.2222 5.68658L35.3315 5.58307L36.7483 4.23845C37.1255 3.8804 37.1255 3.30004 36.7482 2.94206Z" fill="#FC5151"/>
<path d="M34.2829 4.79532L34.3447 4.73664H34.3447L35.828 3.32888C36.1151 3.05654 36.533 2.98539 36.8894 3.11363C36.8098 2.99007 36.7847 2.97652 36.3359 2.55071C35.9587 2.19273 35.347 2.19273 34.9697 2.55071L33.5352 3.91205L33.4437 3.99884L34.2829 4.79532Z" fill="#D33333"/>
<path d="M10.569 2.24858C9.07299 0.828993 6.89131 0.367861 4.85084 0.905116C4.50581 0.995944 4.39027 1.4077 4.64445 1.64897L8.3742 5.1883L7.50586 8.26362L4.26508 9.08756L0.852635 5.84926C0.578329 5.58896 0.107581 5.74041 0.0558494 6.10466C-0.190198 7.83918 0.39047 9.519 1.64896 10.7133C4.00058 12.9447 7.86911 12.7234 10.2782 10.4372C12.7373 8.10359 12.8678 4.43011 10.569 2.24858Z" fill="#A5A6AD"/>
<path d="M3.60406 10.7134C2.53813 9.70178 1.95876 8.34217 1.95572 6.89592L0.852722 5.84931C0.578416 5.589 0.107668 5.74046 0.0559366 6.1047C-0.467606 9.79492 2.75676 12.8005 6.67816 12.1983C5.50642 12.0157 4.43852 11.5052 3.60406 10.7134Z" fill="#8A8C93"/>
<path d="M37.2332 27.5516C34.8871 25.3254 31.0168 25.5379 28.6039 27.8276C24.1455 32.0584 27.9552 38.9578 34.031 37.3598C34.3768 37.2688 34.4913 36.8567 34.2375 36.6159L30.5078 33.0766L31.3761 30.0013L34.6168 29.1773L38.0295 32.4156C38.3034 32.6756 38.7744 32.5251 38.8262 32.1603C39.0723 30.4256 38.4917 28.7459 37.2332 27.5516Z" fill="#A5A6AD"/>
<path d="M30.2284 36.1655C26.6249 32.7458 29.3059 26.5522 34.6299 26.1589C32.4744 25.6468 30.1754 26.337 28.6039 27.8284C24.5577 31.668 27.2715 37.9637 32.8351 37.5593C31.8474 37.3255 30.9505 36.8506 30.2284 36.1655Z" fill="#8A8C93"/>
<path d="M13.9566 12.8723C14.3339 13.2303 14.3339 13.8107 13.9566 14.1688L13.7289 14.3849C13.3517 14.7428 12.7399 14.7428 12.3627 14.3849L11.395 13.4665C11.0178 13.1086 11.0178 12.5281 11.395 12.1701L11.6227 11.954C11.9999 11.5961 12.6116 11.5961 12.9889 11.954L13.9566 12.8723Z" fill="#A1A4AD"/>
<path d="M11.4679 12.1006L11.395 12.1699C11.0178 12.5279 11.0178 13.1083 11.395 13.4663L12.3627 14.3846C12.7399 14.7425 13.3517 14.7425 13.7289 14.3846L13.8019 14.3153L11.4679 12.1006Z" fill="#878993"/>
<path d="M26.9167 25.1712C27.294 25.5292 27.294 26.1097 26.9167 26.4676L26.689 26.6837C26.3117 27.0417 25.7001 27.0417 25.3228 26.6837L24.3551 25.7653C23.9778 25.4074 23.9778 24.827 24.3551 24.4689L24.5827 24.2528C24.96 23.8949 25.5717 23.8949 25.9489 24.2528L26.9167 25.1712Z" fill="#A1A4AD"/>
<path d="M24.4282 24.3984L24.3553 24.4677C23.978 24.8258 23.978 25.4062 24.3553 25.7641L25.323 26.6825C25.7003 27.0404 26.3119 27.0404 26.6892 26.6825L26.7622 26.6133L24.4282 24.3984Z" fill="#878993"/>
</svg>
